<svg id="_x31_px" enable-background="new 0 0 24 24" height="512" viewBox="0 0 24 24" width="512" xmlns="http://www.w3.org/2000/svg"><path d="m12 24c-6.617 0-12-5.383-12-12s5.383-12 12-12 12 5.383 12 12-5.383 12-12 12zm0-23c-6.065 0-11 4.935-11 11s4.935 11 11 11 11-4.935 11-11-4.935-11-11-11z"/><path d="m17.5 18h-11c-.276 0-.5-.224-.5-.5s.224-.5.5-.5h11c.276 0 .5.224.5.5s-.224.5-.5.5z"/><path d="m12 16c-.276 0-.5-.224-.5-.5v-9.75c0-.276.224-.5.5-.5s.5.224.5.5v9.75c0 .276-.224.5-.5.5z"/><path d="m15.5 9.5c-.128 0-.256-.049-.354-.146l-3.146-3.147-3.146 3.147c-.195.195-.512.195-.707 0s-.195-.512 0-.707l3.5-3.5c.195-.195.512-.195.707 0l3.5 3.5c.195.195.195.512 0 .707-.098.097-.226.146-.354.146z"/></svg>